<svg width="24" height="24" viewBox="0 0 24 24" fill="none" xmlns="http://www.w3.org/2000/svg">
<path d="M11.2248 8.52478C11.3374 8.41211 11.4007 8.25931 11.4007 8.09998C11.4007 7.94064 11.3374 7.78784 11.2248 7.67518C11.1121 7.56251 10.9593 7.49922 10.8 7.49922C10.6406 7.49922 10.4878 7.56251 10.3752 7.67518L8.68078 9.36958L8.20438 8.93518C8.08601 8.834 7.93294 8.78281 7.77752 8.79242C7.6221 8.80202 7.47651 8.87167 7.3715 8.98665C7.26649 9.10163 7.21029 9.25294 7.21479 9.40859C7.21928 9.56424 7.28411 9.71204 7.39558 9.82078L8.29558 10.6428C8.40961 10.7466 8.55924 10.8025 8.71342 10.799C8.8676 10.7954 9.01448 10.7326 9.12358 10.6236L11.2236 8.52358L11.2248 8.52478ZM11.2248 13.6752C11.2807 13.7309 11.325 13.7971 11.3552 13.87C11.3855 13.9429 11.401 14.0211 11.401 14.1C11.401 14.1789 11.3855 14.257 11.3552 14.3299C11.325 14.4028 11.2807 14.469 11.2248 14.5248L9.12478 16.6248C9.01546 16.734 8.86825 16.7968 8.71379 16.8001C8.55932 16.8035 8.40952 16.7471 8.29558 16.6428L7.39558 15.8208C7.28411 15.712 7.21928 15.5642 7.21479 15.4086C7.21029 15.2529 7.26649 15.1016 7.3715 14.9867C7.47651 14.8717 7.6221 14.802 7.77752 14.7924C7.93294 14.7828 8.08601 14.834 8.20438 14.9352L8.68078 15.3708L10.3752 13.6752C10.4309 13.6193 10.4971 13.575 10.57 13.5447C10.6429 13.5145 10.7211 13.4989 10.8 13.4989C10.8789 13.4989 10.957 13.5145 11.0299 13.5447C11.1028 13.575 11.169 13.6193 11.2248 13.6752ZM13.2 14.4C13.0408 14.4 12.8882 14.4632 12.7757 14.5757C12.6632 14.6882 12.6 14.8408 12.6 15C12.6 15.1591 12.6632 15.3117 12.7757 15.4242C12.8882 15.5368 13.0408 15.6 13.2 15.6H15.204C15.072 15.2244 15 14.82 15 14.4H13.2ZM7.19998 19.2H13.26C13.2204 19.3944 13.2 19.5948 13.2 19.8C13.2 20.0004 13.2156 20.2008 13.2456 20.4H7.19998C6.2452 20.4 5.32952 20.0207 4.65439 19.3456C3.97926 18.6704 3.59998 17.7548 3.59998 16.8V7.19998C3.59998 6.2452 3.97926 5.32952 4.65439 4.65439C5.32952 3.97926 6.2452 3.59998 7.19998 3.59998H16.8C17.7548 3.59998 18.6704 3.97926 19.3456 4.65439C20.0207 5.32952 20.4 6.2452 20.4 7.19998V11.2812C20.0291 11.0664 19.6226 10.9201 19.2 10.8492V7.19998C19.2 6.56346 18.9471 5.95301 18.497 5.50292C18.0469 5.05283 17.4365 4.79998 16.8 4.79998H7.19998C6.56346 4.79998 5.95301 5.05283 5.50292 5.50292C5.05283 5.95301 4.79998 6.56346 4.79998 7.19998V16.8C4.79998 17.4365 5.05283 18.0469 5.50292 18.497C5.95301 18.9471 6.56346 19.2 7.19998 19.2ZM12.6 8.99998C12.6 8.84085 12.6632 8.68823 12.7757 8.57571C12.8882 8.46319 13.0408 8.39998 13.2 8.39998H16.2C16.3591 8.39998 16.5117 8.46319 16.6242 8.57571C16.7368 8.68823 16.8 8.84085 16.8 8.99998C16.8 9.15911 16.7368 9.31172 16.6242 9.42424C16.5117 9.53676 16.3591 9.59998 16.2 9.59998H13.2C13.0408 9.59998 12.8882 9.53676 12.7757 9.42424C12.6632 9.31172 12.6 9.15911 12.6 8.99998ZM21 14.4C21 15.0365 20.7471 15.6469 20.297 16.097C19.8469 16.5471 19.2365 16.8 18.6 16.8C17.9635 16.8 17.353 16.5471 16.9029 16.097C16.4528 15.6469 16.2 15.0365 16.2 14.4C16.2 13.7635 16.4528 13.153 16.9029 12.7029C17.353 12.2528 17.9635 12 18.6 12C19.2365 12 19.8469 12.2528 20.297 12.7029C20.7471 13.153 21 13.7635 21 14.4ZM22.8 19.8C22.8 21.294 21.6 22.8 18.6 22.8C15.6 22.8 14.4 21.3 14.4 19.8C14.4 19.3226 14.5896 18.8647 14.9272 18.5272C15.2647 18.1896 15.7226 18 16.2 18H21C21.4774 18 21.9352 18.1896 22.2728 18.5272C22.6103 18.8647 22.8 19.3226 22.8 19.8Z" fill="black"/>
</svg>
