<svg width="32" height="33" viewBox="0 0 32 33" fill="none" xmlns="http://www.w3.org/2000/svg">
<path d="M13.528 4.83066C13.7272 4.33828 14.0689 3.91661 14.5093 3.6197C14.9497 3.32278 15.4688 3.16416 16 3.16416C16.5311 3.16416 17.0502 3.32278 17.4906 3.6197C17.931 3.91661 18.2727 4.33828 18.472 4.83066C20.4436 5.37291 22.1828 6.54741 23.4223 8.17378C24.6618 9.80015 25.3332 11.7885 25.3333 13.8333V20.096L27.776 23.76C27.9099 23.9608 27.9869 24.1942 27.9986 24.4353C28.0103 24.6764 27.9563 24.9162 27.8425 25.129C27.7286 25.3419 27.5591 25.5198 27.352 25.6438C27.1449 25.7679 26.908 25.8334 26.6666 25.8333H20.62C20.4594 26.9441 19.904 27.9599 19.0556 28.6946C18.2071 29.4293 17.1223 29.8336 16 29.8336C14.8776 29.8336 13.7928 29.4293 12.9444 28.6946C12.0959 27.9599 11.5405 26.9441 11.38 25.8333H5.33329C5.0919 25.8334 4.85503 25.7679 4.64794 25.6438C4.44086 25.5198 4.27134 25.3419 4.15746 25.129C4.04358 24.9162 3.98961 24.6764 4.00133 24.4353C4.01304 24.1942 4.08998 23.9608 4.22396 23.76L6.66662 20.096V13.8333C6.66662 9.53466 9.57329 5.91333 13.528 4.83066ZM14.1146 25.8333C14.2523 26.2235 14.5077 26.5614 14.8455 26.8004C15.1832 27.0394 15.5868 27.1677 16.0006 27.1677C16.4144 27.1677 16.818 27.0394 17.1558 26.8004C17.4936 26.5614 17.7489 26.2235 17.8866 25.8333H14.1133H14.1146ZM16 7.16667C14.2318 7.16667 12.5362 7.86904 11.2859 9.11929C10.0357 10.3695 9.33329 12.0652 9.33329 13.8333V20.5C9.33335 20.7634 9.2554 21.0209 9.10929 21.24L7.82529 23.1667H24.1733L22.8893 21.24C22.7436 21.0207 22.6662 20.7632 22.6666 20.5V13.8333C22.6666 12.0652 21.9642 10.3695 20.714 9.11929C19.4638 7.86904 17.7681 7.16667 16 7.16667Z" fill="#5C9CDA"/>
</svg>
