<svg width="43" height="38" viewBox="0 0 43 38" fill="none" xmlns="http://www.w3.org/2000/svg">
<path d="M33.75 7.625H9.25C8.32174 7.625 7.4315 7.99375 6.77513 8.65013C6.11875 9.3065 5.75 10.1967 5.75 11.125V26.875C5.75 27.8033 6.11875 28.6935 6.77513 29.3499C7.4315 30.0063 8.32174 30.375 9.25 30.375H33.75C34.6783 30.375 35.5685 30.0063 36.2249 29.3499C36.8813 28.6935 37.25 27.8033 37.25 26.875V11.125C37.25 10.1967 36.8813 9.3065 36.2249 8.65013C35.5685 7.99375 34.6783 7.625 33.75 7.625ZM16.803 20.428L19.6065 22.878C20.1403 23.3435 20.8158 23.5745 21.5 23.5745C22.1842 23.5745 22.8597 23.3417 23.3935 22.878L26.197 20.428L26.1322 20.4927L32.5127 26.8733H10.4872L16.8677 20.4927L16.803 20.428ZM9.25 25.6377V13.82L15.5535 19.3342L9.25 25.6377ZM27.4465 19.3342L33.75 13.82V25.6325L27.4465 19.3342ZM33.75 11.125V11.4925L22.242 21.562C22.0312 21.7301 21.7696 21.8217 21.5 21.8217C21.2304 21.8217 20.9688 21.7301 20.758 21.562L9.25 11.4925V11.125H33.75Z" fill="#333333"/>
</svg>
