<svg width="24" height="24" viewBox="0 0 24 24" fill="none" xmlns="http://www.w3.org/2000/svg">
<path fill-rule="evenodd" clip-rule="evenodd" d="M12 14.121L17.303 19.425C17.5844 19.7064 17.966 19.8645 18.364 19.8645C18.7619 19.8645 19.1436 19.7064 19.425 19.425C19.7064 19.1436 19.8645 18.7619 19.8645 18.364C19.8645 17.966 19.7064 17.5844 19.425 17.303L14.12 12L19.424 6.69699C19.5632 6.55766 19.6737 6.39226 19.749 6.21024C19.8244 6.02821 19.8631 5.83313 19.8631 5.63613C19.8631 5.43914 19.8242 5.24407 19.7488 5.06209C19.6733 4.8801 19.5628 4.71475 19.4235 4.57549C19.2841 4.43622 19.1187 4.32576 18.9367 4.25042C18.7547 4.17507 18.5596 4.13631 18.3626 4.13636C18.1656 4.13641 17.9706 4.17526 17.7886 4.25069C17.6066 4.32612 17.4412 4.43666 17.302 4.57599L12 9.87899L6.69697 4.57599C6.55867 4.43266 6.3932 4.31831 6.21024 4.23961C6.02727 4.16091 5.83046 4.11944 5.63129 4.11762C5.43212 4.11579 5.23459 4.15365 5.05021 4.22899C4.86583 4.30432 4.6983 4.41562 4.55739 4.55639C4.41649 4.69717 4.30503 4.86459 4.22952 5.0489C4.15401 5.23321 4.11597 5.43071 4.1176 5.62988C4.11924 5.82905 4.16053 6.02589 4.23905 6.20894C4.31758 6.39198 4.43177 6.55755 4.57497 6.69599L9.87997 12L4.57597 17.303C4.29458 17.5844 4.13649 17.966 4.13649 18.364C4.13649 18.7619 4.29458 19.1436 4.57597 19.425C4.85737 19.7064 5.23902 19.8645 5.63697 19.8645C6.03492 19.8645 6.41658 19.7064 6.69797 19.425L12 14.12V14.121Z" fill="black"/>
</svg>
