<svg width="120" height="121" viewBox="0 0 120 121" fill="none" xmlns="http://www.w3.org/2000/svg">
<g clip-path="url(#clip0_331_715)">
<rect y="0.5" width="120" height="120" rx="8" fill="#D6EEEA"/>
<path d="M50.3106 72.4126L48.8256 73.8955L51.0352 76.104L52.518 74.6211L50.3095 72.4126H50.3106ZM69.6905 72.4126L67.4809 74.6211L68.9648 76.104L71.1734 73.8965L69.6905 72.4126ZM60 73.0707C59.652 73.0749 59.2997 73.095 58.9453 73.1382C58.9348 73.1382 58.9242 73.1361 58.9137 73.1382C54.6359 73.6287 51.2313 77.0849 50.6396 81.3437C50.1671 84.7714 51.5804 87.8796 53.9355 89.8814C54.8989 90.7036 55.5505 91.8318 55.7812 93.0771V99.4052H58.1859C58.553 100.035 59.2227 100.46 60 100.46C60.7773 100.46 61.447 100.035 61.8141 99.4052H64.2188V95.1865H64.3179V93.9335C64.3179 92.3873 65.1216 90.8285 66.4273 89.6167C68.1738 87.868 69.4922 85.3842 69.4922 82.5313C69.4922 77.3211 65.2038 73.0222 60 73.0707ZM60 75.1801C64.0764 75.1231 67.3828 78.4602 67.3828 82.5313C67.3828 84.7398 66.3598 86.6846 64.9433 88.1L64.9771 88.1338C63.5695 89.4318 62.6593 91.1806 62.4036 93.0781H57.7904C57.5584 91.2704 56.7832 89.5207 55.3182 88.2656C53.4546 86.6836 52.344 84.3 52.7153 81.6084C53.1762 78.2862 55.872 75.6146 59.1752 75.2487C59.448 75.2106 59.7226 75.1881 59.9979 75.1812L60 75.1801ZM45.2344 82.5313V84.6406H48.3984V82.5313H45.2344ZM71.6016 82.5313V84.6406H74.7656V82.5313H71.6016ZM51.0352 91.0679L48.8266 93.2754L50.3106 94.7593L52.517 92.5508L51.0352 91.0679ZM68.9648 91.0679L67.482 92.5508L69.6894 94.7593L71.1734 93.2754L68.9648 91.0679ZM57.8906 95.1875H62.1094V97.2969H57.8906V95.1875Z" fill="#5C9CDA"/>
<path d="M23.75 10.5H96.25C97.2446 10.5 98.1984 10.8951 98.9017 11.5983C99.6049 12.3016 100 13.2554 100 14.25C100 15.2446 99.6049 16.1984 98.9017 16.9017C98.1984 17.6049 97.2446 18 96.25 18H92.5V32.91C92.5 36.9206 91.4844 40.8659 89.5478 44.378C87.6112 47.8901 84.8167 50.8546 81.425 52.995L71.205 59.445C71.0274 59.5579 70.8812 59.7137 70.7799 59.8981C70.6786 60.0826 70.6254 60.2896 70.6254 60.5C70.6254 60.7104 70.6786 60.9174 70.7799 61.1019C70.8812 61.2863 71.0274 61.4421 71.205 61.555L81.425 68.005C84.8167 70.1454 87.6112 73.1099 89.5478 76.622C91.4844 80.1341 92.5 84.0794 92.5 88.09V103H96.25C97.2446 103 98.1984 103.395 98.9017 104.098C99.6049 104.802 100 105.755 100 106.75C100 107.745 99.6049 108.698 98.9017 109.402C98.1984 110.105 97.2446 110.5 96.25 110.5H23.75C22.7554 110.5 21.8016 110.105 21.0983 109.402C20.3951 108.698 20 107.745 20 106.75C20 105.755 20.3951 104.802 21.0983 104.098C21.8016 103.395 22.7554 103 23.75 103H27.5V88.09C27.5 84.0794 28.5156 80.1341 30.4522 76.622C32.3888 73.1099 35.1833 70.1454 38.575 68.005L48.795 61.555C48.9726 61.4421 49.1188 61.2863 49.2201 61.1019C49.3215 60.9174 49.3746 60.7104 49.3746 60.5C49.3746 60.2896 49.3215 60.0826 49.2201 59.8981C49.1188 59.7137 48.9726 59.5579 48.795 59.445L38.575 52.995C35.1833 50.8546 32.3888 47.8901 30.4522 44.378C28.5156 40.8659 27.5 36.9206 27.5 32.91V18H23.75C22.7554 18 21.8016 17.6049 21.0983 16.9017C20.3951 16.1984 20 15.2446 20 14.25C20 13.2554 20.3951 12.3016 21.0983 11.5983C21.8016 10.8951 22.7554 10.5 23.75 10.5ZM85 18H35V32.91C35.0007 35.6539 35.6961 38.353 37.0216 40.7556C38.347 43.1582 40.2592 45.186 42.58 46.65L52.8 53.1C54.0497 53.8885 55.0793 54.9807 55.7929 56.2747C56.5065 57.5687 56.8807 59.0223 56.8807 60.5C56.8807 61.9777 56.5065 63.4313 55.7929 64.7253C55.0793 66.0193 54.0497 67.1115 52.8 67.9L42.58 74.35C40.2592 75.814 38.347 77.8418 37.0216 80.2444C35.6961 82.647 35.0007 85.3461 35 88.09V103H85V88.09C84.9994 85.3461 84.3039 82.647 82.9784 80.2444C81.653 77.8418 79.7408 75.814 77.42 74.35L67.2 67.9C65.9503 67.1115 64.9207 66.0193 64.2071 64.7253C63.4935 63.4313 63.1193 61.9777 63.1193 60.5C63.1193 59.0223 63.4935 57.5687 64.2071 56.2747C64.9207 54.9807 65.9503 53.8885 67.2 53.1L77.42 46.65C79.7408 45.186 81.653 43.1582 82.9784 40.7556C84.3039 38.353 84.9994 35.6539 85 32.91V18Z" fill="#5C9CDA"/>
<path d="M46.95 40.3751C46.95 42.0376 47.525 43.4626 48.6875 44.6626C49.85 45.8626 51.2625 46.5001 52.9375 46.5751C53.075 46.5751 53.15 46.5001 53.15 46.3626V44.6501C53.15 44.5001 53.075 44.4251 52.9375 44.4251C51.85 44.3376 50.9375 43.9126 50.2 43.1251C49.4625 42.3501 49.0875 41.4251 49.0875 40.3626C49.0875 39.3126 49.4375 38.4001 50.15 37.6251C50.8625 36.8501 51.725 36.4126 52.775 36.3251L53.425 36.2251C53.5875 36.2251 53.675 36.1501 53.675 36.0126L53.75 35.3751C53.8875 34.0251 54.45 32.8876 55.4625 31.9876C56.4749 31.0751 57.6624 30.6251 59.0374 30.6251C60.4 30.6251 61.5875 31.0751 62.5999 31.9876C63.6124 32.8876 64.1874 34.0251 64.3375 35.3876L64.4249 36.1126C64.4249 36.2501 64.5 36.3251 64.6624 36.3251H66.6625C67.7999 36.3251 68.7624 36.7251 69.5624 37.5126C70.3624 38.3001 70.7625 39.2501 70.7625 40.3626C70.7625 41.4251 70.3874 42.3501 69.6499 43.1251C68.9124 43.9001 68 44.3376 66.9125 44.4251C66.75 44.4251 66.6625 44.5001 66.6625 44.6501V46.3626C66.6625 46.5001 66.75 46.5751 66.9125 46.5751C68.575 46.5251 69.9874 45.8876 71.1374 44.6876C72.2874 43.4876 72.8624 42.0501 72.8624 40.3751C72.8624 39.5251 72.6624 38.6626 72.2749 37.7876C73.2499 36.6126 73.7499 35.2501 73.7499 33.7001C73.7499 32.8126 73.5749 31.9626 73.2249 31.1501C72.8749 30.3376 72.4124 29.6501 71.8249 29.0626C71.2374 28.4751 70.5375 28.0126 69.7375 27.6626C68.925 27.3251 68.0875 27.1501 67.1999 27.1501C65.275 27.1501 63.65 27.8751 62.3499 29.3126C61.2749 28.8001 60.1749 28.5376 59.0374 28.5376C57.2625 28.5376 55.7 29.0751 54.3375 30.1626C52.975 31.2501 52.1 32.6501 51.7125 34.3751C50.3375 34.7001 49.2 35.4126 48.3 36.5376C47.4 37.6626 46.95 38.9376 46.95 40.3751ZM56.325 54.4626H56.7L63.35 44.6501C63.4 44.6001 63.4124 44.5376 63.3749 44.4751C63.3374 44.4126 63.2874 44.3876 63.1999 44.3876H60.4749L63.35 39.1251C63.4375 38.9501 63.3874 38.8501 63.1749 38.8501H59.5C59.4 38.8501 59.3124 38.9126 59.2249 39.0251L56.525 46.1751C56.5 46.3501 56.5499 46.4376 56.7 46.4376H59.4124L56.325 54.4626ZM57.4249 24.9876C57.4249 25.3001 57.525 25.5626 57.725 25.7626L58.55 26.5751C59.075 26.9751 59.5749 26.9751 60.0624 26.5751C60.2624 26.3501 60.3624 26.0876 60.3624 25.7751C60.3624 25.4876 60.2624 25.2376 60.0624 25.0376L59.2625 24.2251C59.0542 24.0248 58.7764 23.9128 58.4874 23.9126C58.1999 23.9126 57.9499 24.0126 57.7374 24.2251C57.5249 24.4376 57.4249 24.7001 57.4249 24.9876ZM64.0999 30.5251C64.9499 29.6751 65.9874 29.2501 67.1999 29.2501C68.4249 29.2501 69.4625 29.6876 70.3125 30.5501C71.1749 31.4126 71.6 32.4626 71.6 33.7001C71.6 34.4626 71.3874 35.2126 70.9625 35.9626C69.7374 34.7876 68.2999 34.2001 66.6374 34.2001H66.25C65.9249 32.7751 65.1999 31.5501 64.0999 30.5251ZM66.125 23.9126C66.125 24.2251 66.2249 24.4876 66.4249 24.6876C66.6249 24.8876 66.875 24.9876 67.1875 24.9876C67.4874 24.9876 67.725 24.8876 67.9249 24.6876C68.125 24.4876 68.2125 24.2251 68.2125 23.9126V21.3626C68.2125 21.0626 68.1124 20.8251 67.9249 20.6251C67.8288 20.5285 67.7135 20.4531 67.5865 20.4036C67.4595 20.3541 67.3236 20.3316 67.1875 20.3376C66.8874 20.3376 66.6374 20.4376 66.4375 20.6251C66.2374 20.8126 66.125 21.0626 66.125 21.3626V23.9126ZM73.025 26.8126C73.025 27.1001 73.1374 27.3501 73.3624 27.5626C73.5875 27.7751 73.8249 27.8751 74.0499 27.8751C74.2499 27.8751 74.5124 27.7751 74.8249 27.5626L76.6249 25.7751C76.8374 25.5501 76.9374 25.2876 76.9374 24.9876C76.9374 24.6876 76.8374 24.4251 76.6249 24.2251C76.4244 24.0299 76.1548 23.9221 75.875 23.9251C75.6 23.9251 75.3624 24.0251 75.15 24.2376L73.3624 26.0251C73.1374 26.2626 73.025 26.5251 73.025 26.8126ZM74.0374 41.5876C74.0374 41.8751 74.1374 42.1251 74.3374 42.3501L75.15 43.1751C75.35 43.3751 75.6 43.4751 75.875 43.4751C76.1749 43.4751 76.4249 43.3751 76.6249 43.1626C76.8374 42.9501 76.9374 42.6876 76.9374 42.3751C76.9374 42.0876 76.8374 41.8501 76.6249 41.6626L75.8499 40.8376C75.6362 40.649 75.36 40.5466 75.0749 40.5501C74.7874 40.5501 74.5374 40.6501 74.3374 40.8501C74.1374 41.0501 74.0374 41.3001 74.0374 41.5876ZM75.8499 33.7001C75.8499 33.9751 75.9625 34.2126 76.1749 34.4126C76.3874 34.6251 76.6374 34.7251 76.9249 34.7251H79.4749C79.7749 34.7251 80.0249 34.6251 80.2374 34.4251C80.45 34.2251 80.5499 33.9876 80.5499 33.6876C80.5499 33.3876 80.4375 33.1376 80.2249 32.9251C80.0124 32.7126 79.7624 32.6126 79.4749 32.6126H76.9249C76.6374 32.6126 76.3874 32.7126 76.1749 32.9251C76.0721 33.0263 75.9904 33.1469 75.9346 33.28C75.8788 33.413 75.85 33.5558 75.8499 33.7001Z" fill="#5C9CDA"/>
</g>
<rect x="0.5" y="1" width="119" height="119" rx="7.5" stroke="#5C9CDA"/>
<defs>
<clipPath id="clip0_331_715">
<rect y="0.5" width="120" height="120" rx="8" fill="white"/>
</clipPath>
</defs>
</svg>
